<svg width="131" height="131" viewBox="0 0 131 131" fill="none" xmlns="http://www.w3.org/2000/svg">
<path d="M65.5504 130.118C101.305 130.118 130.289 101.121 130.289 65.3508C130.289 29.5807 101.305 0.583336 65.5504 0.583336C29.7961 0.583336 0.811401 29.5807 0.811401 65.3508C0.811401 101.121 29.7961 130.118 65.5504 130.118Z" fill="#D2483D"/>
<path d="M108.71 65.3508L39.6632 99.9025L69.3677 130.003C96.899 128.401 119.81 109.59 127.513 84.1617L108.71 65.3508Z" fill="#9E231D"/>
<path d="M64.2016 76.1819C72.892 76.1819 79.9369 69.1339 79.9369 60.4398C79.9369 51.7456 72.892 44.6976 64.2016 44.6976C55.5112 44.6976 48.4663 51.7456 48.4663 60.4398C48.4663 69.1339 55.5112 76.1819 64.2016 76.1819Z" fill="#E39D46"/>
<path d="M64.2015 77.926C54.5639 77.926 46.7224 70.0815 46.7224 60.4393C46.7224 50.797 54.5635 42.9525 64.2015 42.9525C73.8396 42.9525 81.6806 50.797 81.6806 60.4393C81.6806 70.0815 73.8396 77.926 64.2015 77.926ZM64.2015 46.4421C56.4869 46.4421 50.21 52.7212 50.21 60.4397C50.21 68.1581 56.4865 74.4373 64.2015 74.4373C71.9166 74.4373 78.193 68.1581 78.193 60.4397C78.193 52.7212 71.9166 46.4421 64.2015 46.4421Z" fill="#F7CA68"/>
<path d="M64.2019 68.3109C68.5471 68.3109 72.0695 64.7869 72.0695 60.4398C72.0695 56.0928 68.5471 52.5687 64.2019 52.5687C59.8567 52.5687 56.3342 56.0928 56.3342 60.4398C56.3342 64.7869 59.8567 68.3109 64.2019 68.3109Z" fill="#E39D46"/>
<path d="M64.2017 70.055C58.9022 70.055 54.5902 65.7411 54.5902 60.4393C54.5902 55.1376 58.9022 50.8237 64.2017 50.8237C69.5011 50.8237 73.8131 55.1376 73.8131 60.4393C73.8131 65.7411 69.5015 70.055 64.2017 70.055ZM64.2017 54.3128C60.8252 54.3128 58.0778 57.0614 58.0778 60.4393C58.0778 63.8173 60.8252 66.5658 64.2017 66.5658C67.5781 66.5658 70.3255 63.8173 70.3255 60.4393C70.3255 57.0614 67.5781 54.3128 64.2017 54.3128Z" fill="#F7CA68"/>
<path d="M64.2016 44.6976C64.1667 44.6976 64.1323 44.7002 64.0974 44.7002V76.1789C64.1323 76.1794 64.1667 76.1815 64.2016 76.1815C72.8919 76.1815 79.9369 69.1335 79.9369 60.4394C79.9369 51.7457 72.8919 44.6976 64.2016 44.6976Z" fill="#C46116"/>
<path d="M64.2016 42.953C64.1667 42.953 64.1323 42.9556 64.0974 42.9556V46.4448C64.1323 46.4443 64.1667 46.4421 64.2016 46.4421C71.9162 46.4421 78.193 52.7213 78.193 60.4397C78.193 68.1582 71.9166 74.4373 64.2016 74.4373C64.1667 74.4373 64.1323 74.4352 64.0974 74.4347V77.9239C64.1323 77.9239 64.1667 77.9265 64.2016 77.9265C73.8392 77.9265 81.6807 70.082 81.6807 60.4397C81.6807 50.7975 73.8396 42.953 64.2016 42.953Z" fill="#D89221"/>
<path d="M64.2016 52.5687C64.1663 52.5687 64.1323 52.5735 64.0974 52.574V68.3057C64.1327 68.3061 64.1663 68.3109 64.2016 68.3109C68.5467 68.3109 72.0692 64.7869 72.0692 60.4398C72.0692 56.0928 68.5467 52.5687 64.2016 52.5687Z" fill="#C46116"/>
<path d="M64.2016 50.8237C64.1667 50.8237 64.1323 50.8259 64.0974 50.8263V54.3181C64.1323 54.3176 64.1663 54.3128 64.2016 54.3128C67.5781 54.3128 70.3255 57.0614 70.3255 60.4393C70.3255 63.8173 67.5781 66.5658 64.2016 66.5658C64.1663 66.5658 64.1323 66.5611 64.0974 66.5606V70.0524C64.1323 70.0528 64.1667 70.055 64.2016 70.055C69.5011 70.055 73.8131 65.7411 73.8131 60.4393C73.8131 55.1376 69.5015 50.8237 64.2016 50.8237Z" fill="#D89221"/>
<path d="M43.9707 79.7435C51.9161 79.7435 58.3571 73.2997 58.3571 65.3508C58.3571 57.4019 51.9161 50.958 43.9707 50.958C36.0253 50.958 29.5842 57.4019 29.5842 65.3508C29.5842 73.2997 36.0253 79.7435 43.9707 79.7435Z" fill="#E39D46"/>
<path d="M43.9706 81.4881C35.0763 81.4881 27.8403 74.2489 27.8403 65.3507C27.8403 56.4525 35.0763 49.2134 43.9706 49.2134C52.865 49.2134 60.101 56.4525 60.101 65.3507C60.101 74.2489 52.865 81.4881 43.9706 81.4881ZM43.9706 52.7025C36.9997 52.7025 31.328 58.3768 31.328 65.3507C31.328 72.3247 36.9997 77.9989 43.9706 77.9989C50.9416 77.9989 56.6133 72.3247 56.6133 65.3507C56.6133 58.3768 50.9416 52.7025 43.9706 52.7025Z" fill="#F7CA68"/>
<path d="M43.9708 72.5471C47.9435 72.5471 51.164 69.3252 51.164 65.3508C51.164 61.3763 47.9435 58.1544 43.9708 58.1544C39.9981 58.1544 36.7776 61.3763 36.7776 65.3508C36.7776 69.3252 39.9981 72.5471 43.9708 72.5471Z" fill="#E39D46"/>
<path d="M43.9706 74.2917C39.0426 74.2917 35.0336 70.2809 35.0336 65.3507C35.0336 60.4206 39.0426 56.4098 43.9706 56.4098C48.8986 56.4098 52.9077 60.4206 52.9077 65.3507C52.9077 70.2809 48.8986 74.2917 43.9706 74.2917ZM43.9706 59.8989C40.9656 59.8989 38.5212 62.3444 38.5212 65.3507C38.5212 68.3571 40.9656 70.8025 43.9706 70.8025C46.9756 70.8025 49.42 68.3571 49.42 65.3507C49.42 62.3444 46.9756 59.8989 43.9706 59.8989Z" fill="#F7CA68"/>
<path d="M83.5335 86.9399C93.4653 86.9399 101.517 78.8851 101.517 68.949C101.517 59.0128 93.4653 50.958 83.5335 50.958C73.6017 50.958 65.5504 59.0128 65.5504 68.949C65.5504 78.8851 73.6017 86.9399 83.5335 86.9399Z" fill="#E39D46"/>
<path d="M83.5334 88.6845C72.6559 88.6845 63.8065 79.8312 63.8065 68.9489C63.8065 58.0667 72.6559 49.2134 83.5334 49.2134C94.4108 49.2134 103.26 58.0667 103.26 68.9489C103.26 79.8312 94.4108 88.6845 83.5334 88.6845ZM83.5334 52.7025C74.5789 52.7025 67.2941 59.9905 67.2941 68.9489C67.2941 77.9073 74.5789 85.1953 83.5334 85.1953C92.4878 85.1953 99.7726 77.9073 99.7726 68.9489C99.7726 59.9905 92.4878 52.7025 83.5334 52.7025Z" fill="#F7CA68"/>
<path d="M83.5336 79.8526C89.5529 79.8526 94.4325 74.9709 94.4325 68.949C94.4325 62.9271 89.5529 58.0454 83.5336 58.0454C77.5144 58.0454 72.6348 62.9271 72.6348 68.949C72.6348 74.9709 77.5144 79.8526 83.5336 79.8526Z" fill="#E39D46"/>
<path d="M83.5335 81.5971C76.5626 81.5971 70.8909 75.9229 70.8909 68.949C70.8909 61.975 76.5626 56.3008 83.5335 56.3008C90.5044 56.3008 96.1762 61.975 96.1762 68.949C96.1762 75.9229 90.5044 81.5971 83.5335 81.5971ZM83.5335 59.7899C78.4856 59.7899 74.3785 63.8988 74.3785 68.949C74.3785 73.9991 78.4856 78.108 83.5335 78.108C88.5815 78.108 92.6886 73.9991 92.6886 68.949C92.6886 63.8988 88.5815 59.7899 83.5335 59.7899Z" fill="#F7CA68"/>
<path d="M83.5335 72.5471C85.5199 72.5471 87.1302 70.9362 87.1302 68.9489C87.1302 66.9617 85.5199 65.3508 83.5335 65.3508C81.5472 65.3508 79.9369 66.9617 79.9369 68.9489C79.9369 70.9362 81.5472 72.5471 83.5335 72.5471Z" fill="#E67E22"/>
<path d="M83.5334 74.2917C80.5886 74.2917 78.193 71.8951 78.193 68.9489C78.193 66.0028 80.5886 63.6062 83.5334 63.6062C86.4783 63.6062 88.8738 66.0028 88.8738 68.9489C88.8738 71.8951 86.4783 74.2917 83.5334 74.2917ZM83.5334 67.0953C82.5115 67.0953 81.6806 67.9266 81.6806 68.9489C81.6806 69.9712 82.5115 70.8025 83.5334 70.8025C84.5553 70.8025 85.3862 69.9712 85.3862 68.9489C85.3862 67.9266 84.5553 67.0953 83.5334 67.0953Z" fill="#F7CA68"/>
<path d="M108.71 65.3508C108.71 89.1974 89.3865 108.529 65.5503 108.529C41.7142 108.529 22.391 89.1974 22.391 65.3508H108.71Z" fill="#F0DEB4"/>
<path d="M64.0974 65.3508V108.502C64.58 108.518 65.0639 108.529 65.5504 108.529C89.3866 108.529 108.71 89.1974 108.71 65.3508H64.0974Z" fill="#D5C295"/>
<path d="M87.13 52.7026C86.1669 52.7026 85.3861 51.9214 85.3861 50.958V22.1725C85.3861 21.209 86.1669 20.4279 87.13 20.4279C88.093 20.4279 88.8738 21.209 88.8738 22.1725V50.958C88.8738 51.9214 88.093 52.7026 87.13 52.7026Z" fill="#F7CA68"/>
<path d="M79.9368 59.8989C78.9738 59.8989 78.193 59.1178 78.193 58.1544V29.3688C78.193 28.4054 78.9738 27.6243 79.9368 27.6243C80.8998 27.6243 81.6806 28.4054 81.6806 29.3688V58.1544C81.6806 59.1178 80.8998 59.8989 79.9368 59.8989Z" fill="#F7CA68"/>
<path d="M87.1302 31.5496H29.5843C28.3802 31.5496 27.4045 30.5735 27.4045 29.3689C27.4045 28.1643 28.3802 27.1882 29.5843 27.1882H87.1302C88.3343 27.1882 89.3099 28.1643 89.3099 29.3689C89.3099 30.5735 88.3343 31.5496 87.1302 31.5496Z" fill="#D5C295"/>
<path d="M94.3235 24.3532H36.7777C35.5736 24.3532 34.5979 23.3772 34.5979 22.1725C34.5979 20.9679 35.5736 19.9918 36.7777 19.9918H94.3235C95.5276 19.9918 96.5032 20.9679 96.5032 22.1725C96.5032 23.3772 95.5276 24.3532 94.3235 24.3532Z" fill="#D5C295"/>
<path d="M87.1303 27.1882H65.4055V31.5496H87.1303C88.3344 31.5496 89.3101 30.5735 89.3101 29.3689C89.3101 28.1643 88.3344 27.1882 87.1303 27.1882Z" fill="#BCA77E"/>
<path d="M94.3235 19.9918H65.4055V24.3532H94.3235C95.5276 24.3532 96.5033 23.3772 96.5033 22.1725C96.5033 20.9679 95.5276 19.9918 94.3235 19.9918Z" fill="#BCA77E"/>
</svg>
